<?xml version="1.0" encoding="iso-8859-1"?>
<!-- Generator: Adobe Illustrator 19.0.0, SVG Export Plug-In . SVG Version: 6.00 Build 0)  -->
<svg xmlns="http://www.w3.org/2000/svg" xmlns:xlink="http://www.w3.org/1999/xlink" version="1.1" id="Capa_1" x="0px" y="0px" viewBox="0 0 511.999 511.999" style="enable-background:new 0 0 511.999 511.999;" xml:space="preserve" width="512px" height="512px">
<g>
	<g>
		<path d="M510.932,253.316c-1.698-3.375-5.154-5.505-8.933-5.505h-32.196c-1.947-59.708-26.143-115.813-68.24-158.143    C357.55,45.416,299.054,21.044,236.849,21.044c-62.186,0-120.755,24.439-164.921,68.813C25.956,134.84,0.413,193.635,0,255.495    l0.001,1.342c0.388,62.498,24.765,121.259,68.643,165.459c43.953,44.275,102.275,68.659,164.224,68.659    c58.159,0,113.817-21.676,156.72-61.032l1.256-1.151c2.033-1.864,3.206-4.486,3.241-7.245c0.023-1.796-0.446-3.542-1.318-5.073    c16.011-15.74,29.453-33.598,40.11-53.28c2.484-0.446,4.736-1.805,6.265-3.867l70.889-95.537    C512.282,260.735,512.63,256.691,510.932,253.316z M378.666,402.279l-26.827-25.875c-1.409-1.359-3.121-2.226-4.917-2.596    c-0.075-0.016-0.152-0.022-0.227-0.036c-0.225-0.041-0.45-0.082-0.676-0.108c-0.042-0.005-0.084-0.004-0.126-0.008    c-2.687-0.268-5.465,0.544-7.627,2.46l-1.108,0.982c-9.561,8.469-20.252,15.723-31.689,21.624    c-0.159,0.082-0.316,0.169-0.476,0.25c-0.018,0.009-0.036,0.018-0.054,0.027c-22.164,11.332-47.102,17.583-72.056,17.707h-0.012    l-0.756,0.001c-42.437,0-82.187-16.855-111.926-47.461c-16.557-17.039-28.93-37.156-36.587-59.046    c-0.425-1.216-0.836-2.438-1.232-3.664c-0.792-2.454-1.526-4.928-2.201-7.422c-1.349-4.988-2.461-10.053-3.329-15.18    c-0.434-2.563-0.808-5.143-1.12-7.736c-0.78-6.483-1.176-13.052-1.176-19.68c-0.182-38.657,14.616-75.819,41.921-105.885    c2.825-3.11,5.783-6.145,8.873-9.097c0.03-0.029,0.06-0.058,0.089-0.087l0.096-0.094c0.03-0.029,0.06-0.059,0.089-0.088    c2.714-2.727,5.53-5.346,8.439-7.853c28.124-24.237,64.974-38.052,102.783-38.239l0.762-0.001    c84.817,0,153.632,66.904,157.416,152.637h-34.787c-3.778,0-7.234,2.13-8.933,5.505c-0.212,0.422-0.393,0.854-0.541,1.294    c-0.164,0.486-0.281,0.982-0.368,1.482c-0.464,2.66,0.153,5.443,1.811,7.678l64.602,87.067    C406.841,369.917,394.053,387.168,378.666,402.279z M431.111,336.566l-51.015-68.754h25.265c2.71,0,5.305-1.1,7.189-3.048    c1.648-1.704,2.63-3.931,2.789-6.275c0.023-0.335,0.029-0.672,0.017-1.011l-0.287-8.582c-0.051-1.522-0.121-3.039-0.208-4.551    c-4.898-84.648-66.297-152.476-146.425-166.504c-1.431-0.25-2.868-0.484-4.31-0.7c-2.885-0.432-5.793-0.794-8.723-1.086    c-5.859-0.583-11.803-0.881-17.819-0.881l-0.811,0.001c-2.936,0.015-5.868,0.102-8.791,0.262    c-2.789,0.152-5.571,0.374-8.343,0.656c-0.302,0.031-0.604,0.063-0.906,0.095c-40.474,4.324-78.804,22.365-107.251,50.925    l-0.006,0.006c-1.155,1.104-2.293,2.219-3.415,3.343c-34.769,34.854-53.736,79.468-53.517,126.103    c0,30.498,7.489,59.906,21.561,86.061c7.894,14.672,17.851,28.324,29.74,40.559c16.367,16.844,35.432,29.983,56.226,39.033    c0.51,0.222,1.017,0.454,1.53,0.671c0.371,0.157,0.747,0.303,1.12,0.458c0.969,0.403,1.937,0.806,2.912,1.191    c0.023,0.009,0.046,0.017,0.069,0.026c13.487,5.314,27.647,8.938,42.23,10.764c1.235,0.155,2.474,0.289,3.715,0.418    c0.226,0.023,0.451,0.054,0.677,0.076c5.878,0.588,11.82,0.885,17.809,0.885l0.818-0.001c1.258-0.006,2.516-0.026,3.773-0.06    c1.332-0.036,2.664-0.089,3.996-0.156c37.622-1.879,74.688-15.952,103.758-39.399l24.879,23.996    c-38.211,32.222-86.334,49.867-136.489,49.867c-56.578,0-109.86-22.285-150.03-62.75c-40.166-40.461-62.482-94.262-62.836-151.439    L20,255.554c0.377-56.433,23.804-110.218,65.964-151.45c0.033-0.032,0.065-0.064,0.098-0.097    c40.391-40.603,93.941-62.963,150.788-62.963c56.843,0,110.303,22.277,150.532,62.728c38.87,39.084,61.059,91.009,62.477,146.209    l0.208,8.087c0.14,5.421,4.574,9.743,9.997,9.743h22.064L431.111,336.566z" fill="#999999"/>
	</g>
</g>
<g>
	<g>
		<path d="M315.199,143.58c-0.131-0.64-0.32-1.26-0.57-1.87c-0.25-0.6-0.561-1.18-0.92-1.72c-0.36-0.55-0.78-1.06-1.24-1.53    c-0.46-0.46-0.979-0.87-1.52-1.24c-0.551-0.36-1.131-0.67-1.73-0.92c-0.6-0.25-1.229-0.44-1.87-0.57c-1.29-0.26-2.62-0.26-3.91,0    c-0.64,0.13-1.27,0.32-1.87,0.57c-0.6,0.25-1.18,0.56-1.72,0.92c-0.55,0.37-1.06,0.78-1.53,1.24c-0.46,0.47-0.869,0.98-1.239,1.53    c-0.36,0.54-0.67,1.12-0.92,1.72c-0.25,0.61-0.441,1.23-0.57,1.87c-0.13,0.65-0.19,1.3-0.19,1.96c0,0.65,0.061,1.31,0.19,1.95    c0.129,0.64,0.32,1.269,0.57,1.87c0.25,0.6,0.559,1.19,0.92,1.73c0.37,0.55,0.779,1.06,1.239,1.52c0.471,0.46,0.98,0.88,1.53,1.24    c0.54,0.36,1.12,0.67,1.72,0.92c0.601,0.25,1.23,0.44,1.87,0.57c0.65,0.13,1.301,0.2,1.96,0.2c0.65,0,1.311-0.07,1.95-0.2    c0.641-0.13,1.271-0.32,1.87-0.57c0.6-0.25,1.18-0.56,1.73-0.92c0.54-0.36,1.06-0.78,1.52-1.24c0.46-0.46,0.88-0.97,1.24-1.52    c0.359-0.54,0.67-1.13,0.92-1.73s0.439-1.23,0.57-1.87c0.13-0.65,0.199-1.3,0.199-1.95    C315.398,144.88,315.329,144.23,315.199,143.58z" fill="#999999"/>
	</g>
</g>
<g>
	<g>
		<path d="M320.366,352.647c-3.226-4.482-9.474-5.504-13.958-2.277c-47.553,34.208-112.185,28.92-153.68-12.576    c-46.446-46.445-46.446-122.018,0-168.463c30.602-30.603,75.49-42.206,117.139-30.279c5.311,1.519,10.847-1.551,12.366-6.861    c1.521-5.31-1.551-10.846-6.86-12.366c-48.636-13.925-101.049-0.374-136.788,35.364c-54.244,54.244-54.244,142.505,0,196.748    c23.483,23.482,54.629,37.809,87.7,40.34c3.551,0.271,7.099,0.406,10.641,0.406c29.073,0,57.547-9.089,81.162-26.078    C322.571,363.38,323.591,357.131,320.366,352.647z" fill="#999999"/>
	</g>
</g>
<g>
	<g>
		<path d="M302.438,300.97c-0.46-0.46-0.97-0.88-1.52-1.25c-0.54-0.36-1.13-0.66-1.73-0.91c-0.6-0.25-1.23-0.45-1.87-0.58    c-1.289-0.26-2.619-0.26-3.909,0c-0.641,0.13-1.261,0.33-1.87,0.58c-0.601,0.24-1.181,0.55-1.73,0.91    c-0.54,0.37-1.05,0.79-1.52,1.25c-1.86,1.86-2.92,4.44-2.92,7.07s1.06,5.21,2.92,7.07c0.47,0.459,0.98,0.879,1.52,1.24    c0.55,0.36,1.13,0.67,1.73,0.92c0.609,0.25,1.229,0.44,1.87,0.57c0.649,0.13,1.31,0.2,1.96,0.2c0.649,0,1.31-0.07,1.949-0.2    c0.641-0.13,1.271-0.32,1.87-0.57c0.61-0.25,1.19-0.56,1.73-0.92c0.55-0.36,1.06-0.78,1.52-1.24c1.86-1.86,2.931-4.44,2.931-7.07    S304.299,302.83,302.438,300.97z" fill="#999999"/>
	</g>
</g>
<g>
	<g>
		<path d="M276.102,279.03l-31.276-26.192v-64.885c0-5.523-4.477-10-10-10s-10,4.477-10,10v68.928c0,0.097,0.012,0.191,0.014,0.287    c-0.099,2.969,1.111,5.951,3.565,8.006l34.855,29.19c1.873,1.568,4.15,2.333,6.416,2.333c2.856,0,5.693-1.218,7.672-3.58    C280.894,288.883,280.335,282.576,276.102,279.03z" fill="#999999"/>
	</g>
</g>
<g>
</g>
<g>
</g>
<g>
</g>
<g>
</g>
<g>
</g>
<g>
</g>
<g>
</g>
<g>
</g>
<g>
</g>
<g>
</g>
<g>
</g>
<g>
</g>
<g>
</g>
<g>
</g>
<g>
</g>
</svg>
